# xmcd
#
# Track frame offsets:
#	150
#	17748
#	32358
#	47550
#	66004
#	78796
#	94288
#	113167
#	132142
#	148909
#	164701
#	177417
#	191898
#	210511
#	225111
#	241277
#	260954
#	279520
#
# Disc length: 3780 seconds
#
# Revision: 2
# Processed by: cddbd v1.5.2PL0 Copyright (c) Steve Scherf et al.
# Submitted via: audiograbber 1.83.01
#
DISCID=fb0ec212
DTITLE=Various Artist - Promo Only Country Radio 2011 - 08
DYEAR=2011
DGENRE=Country
TTITLE0=Jason Aldean ft. Ludacris - Dirt Road Anthem (Remix)
TTITLE1=Shania Twain - Today is Your Day
TTITLE2=Big and Rich - Fake I.D.
TTITLE3=Scott McCreary - I Love You this Big
TTITLE4=Jerrod Niemann - One More Drinkin' Song
TTITLE5=Colt Ford ft. Craig Morgan - She Likes to Ride in Trucks
TTITLE6=Brad Paisley and Carrie Underwood - Remind Me
TTITLE7=Lauren Alaina - Like My Mother Does
TTITLE8=The McClymonts - Wrapped Up Good
TTITLE9=JT Hodges - Hunt You Down
TTITLE10=Craig Campbell - Fish
TTITLE11=Kristin Chenoweth - I Want Somebody (Bitch About)
TTITLE12=Ronnie Dunn - Cost Of Livin' (Full Length Version-$3 A Gallon)
TTITLE13=Marlee Scott - Beautiful Maybe
TTITLE14=Steve Azar - Soldier Song
TTITLE15=Christian Kane - Let Me Go
TTITLE16=LeAnn Rimes - Give
TTITLE17=Rascal Flatts ft. Natasha Bedingfield - Easy
EXTD=
EXTT0=
EXTT1=
EXTT2=
EXTT3=
EXTT4=
EXTT5=
EXTT6=
EXTT7=
EXTT8=
EXTT9=
EXTT10=
EXTT11=
EXTT12=
EXTT13=
EXTT14=
EXTT15=
EXTT16=
EXTT17=
PLAYORDER=
